<svg width="31" height="30" viewBox="0 0 31 30" fill="none" xmlns="http://www.w3.org/2000/svg">
<path fill-rule="evenodd" clip-rule="evenodd" d="M2.86457 1.5C2.47216 1.5 2.15404 1.81811 2.15404 2.21053V12.1579C2.15404 12.5503 2.47216 12.8684 2.86457 12.8684H12.8119C13.2043 12.8684 13.5225 12.5503 13.5225 12.1579V2.21053C13.5225 1.81811 13.2043 1.5 12.8119 1.5H2.86457ZM3.5751 11.4474V2.92105H12.1014V11.4474H3.5751ZM18.4957 1.50002C18.1033 1.50002 17.7852 1.81814 17.7852 2.21055V12.1579C17.7852 12.5503 18.1033 12.8684 18.4957 12.8684H28.4431C28.8355 12.8684 29.1536 12.5503 29.1536 12.1579V2.21055C29.1536 1.81814 28.8355 1.50002 28.4431 1.50002H18.4957ZM19.2062 11.4474V2.92108H27.7325V11.4474H19.2062ZM2.15381 17.8423C2.15381 17.4499 2.47192 17.1317 2.86433 17.1317H12.8117C13.2041 17.1317 13.5222 17.4499 13.5222 17.8423V27.7896C13.5222 28.182 13.2041 28.5002 12.8117 28.5002H2.86433C2.47192 28.5002 2.15381 28.182 2.15381 27.7896V17.8423ZM3.57486 18.5528V27.0791H12.1012V18.5528H3.57486ZM18.4957 17.1317C18.1033 17.1317 17.7852 17.4499 17.7852 17.8423V27.7896C17.7852 28.182 18.1033 28.5002 18.4957 28.5002H28.4431C28.8355 28.5002 29.1536 28.182 29.1536 27.7896V17.8423C29.1536 17.4499 28.8355 17.1317 28.4431 17.1317H18.4957ZM19.2062 27.0791V18.5528H27.7325V27.0791H19.2062Z" fill="#8998B4"/>
</svg>
