<svg width="30" height="30" viewBox="0 0 30 30" fill="none" xmlns="http://www.w3.org/2000/svg">
<path fill-rule="evenodd" clip-rule="evenodd" d="M12.5675 2.25C6.4551 2.25 1.5 7.2051 1.5 13.3175C1.5 19.43 6.4551 24.3851 12.5675 24.3851C15.3922 24.3851 17.9697 23.3269 19.9253 21.5853L27.4016 29.0616C27.6527 29.3127 28.0597 29.3127 28.3108 29.0616C28.5618 28.8106 28.5618 28.4036 28.3108 28.1525L20.8345 20.6762C22.5765 18.7205 23.6351 16.1427 23.6351 13.3175C23.6351 7.2051 18.68 2.25 12.5675 2.25ZM2.78571 13.3175C2.78571 7.91518 7.16518 3.53571 12.5675 3.53571C17.9699 3.53571 22.3494 7.91518 22.3494 13.3175C22.3494 18.7199 17.9699 23.0994 12.5675 23.0994C7.16518 23.0994 2.78571 18.7199 2.78571 13.3175Z" fill="#8998B4"/>
</svg>
